<svg width="100" height="100" viewBox="0 0 100 100" xmlns="http://www.w3.org/2000/svg">
  <defs>
    <linearGradient id="grad1" x1="0%" y1="0%" x2="100%" y2="100%">
      <stop offset="0%" style="stop-color:hsl(var(--primary));stop-opacity:1" />
      <stop offset="100%" style="stop-color:hsl(var(--accent));stop-opacity:1" />
    </linearGradient>
  </defs>
  <path d="M50 10 C20 10 20 40 50 40 C80 40 80 10 50 10 Z M50 15 C30 15 30 35 50 35 C70 35 70 15 50 15 Z" fill="url(#grad1)" transform="rotate(45 50 50)"/>
  <path d="M50 60 C20 60 20 90 50 90 C80 90 80 60 50 60 Z M50 65 C30 65 30 85 50 85 C70 85 70 65 50 65 Z" fill="url(#grad1)" transform="rotate(45 50 50)"/>
  <circle cx="50" cy="50" r="12" fill="hsl(var(--background))"/>
  <circle cx="50" cy="50" r="8" fill="url(#grad1)"/>
</svg>
